<svg xmlns="http://www.w3.org/2000/svg" width="144" height="56" fill="none">
    <defs/>
    <mask id="a" width="87" height="22" x="10" y="34" mask-type="alpha" maskUnits="userSpaceOnUse">
        <path fill="#171717" d="M91.5 42.6s-9.2 6.8-35 6.8C30.5 49.4 15.2 36 14 35c-1.8-1.7-4.7 0-3 2.7C12 39.1 25.3 56 56.5 56c29 0 37.9-9.4 38.8-10.3 2.4-2.5-.2-5.4-3.8-3z"/>
    </mask>
    <g mask="url(#a)">
        <path fill="#1BA7C0" d="M38.5 56.2c.5 5-1.6 8.6-4.9 11.5-1.7 1.5-3.3 3-4.8 4.6-4.3 4-9 4.8-14 2.4C.7 67.9-2.7 49.2 8 36.9a15.2 15.2 0 0120.6-1.7 27.8 27.8 0 0110 21z"/>
        <path fill="#FFA600" d="M49.9 31.7c13.3-1.4 25.4 9 24 20.8-.7 5.7-5.5 10-12.7 12-5.7 1.4-10.8.6-15.7-2.1a29.1 29.1 0 01-11.2-9.6C31.3 48 30.4 42 37 37c3.7-2.8 7.8-5 12.9-5.4z"/>
        <path fill="#FF8616" d="M68.5 35c3.2-7.3 17.2-9.3 22.9-6 7.1 4.1 8.9 13.5 3.3 23.8-3.1 5.9-15.4 7.9-22 4-7-4.3-8.8-13.8-4.2-21.8z"/>
    </g>
    <path fill="#171717" d="M143.9 9.7c-.3-1.7-3.2-1.7-3.3 0-.3 4.5-1.6 14.7-2 18.6 0 1.4 2.7 1.4 3 0 .3-.7 3-14.6 2.3-18.6zM133.2 15.3s-3.3-.4-4.8 2.4c-.2-3.1-3.7-1.7-3.3-.3 1.5 4.3-.5 9.4-.5 11 0 1.5 3.2 1.5 3.6 0 .4-1.3 1-6 2-7.8 1.2-1.7 3-1.3 2.7 0-.2 1.3-1.3 6.2-1.3 7.7 0 1.6 2.7 1.4 3.2.2a49 49 0 001.8-9.8c.3-3.3-3.4-3.4-3.4-3.4z"/>
    <path fill="#F6829F" d="M116 22.2c-2 0-3.5 2.2-3.5 4.1 0 2 1.6 3.3 3.5 3.3 2 0 4-2.2 4-4.1 0-2-2.2-3.3-4-3.3z"/>
    <path fill="#171717" d="M104.8 31.4c-2 1.6-4.8 1.4-6 .4 7-3 12.3-15.8 1.5-16.4-9.5-.4-13 11.5-10.6 15.7-7.5 2.6-13-1.4-13-1.4s6.6-6.1 10.7-9.1c2.4-1.8.3-5.4-1.8-4.8-5.9 1.3-7.7 1-12.6 0-3.6-.7-3.8 3.5-2.2 4.3 3.7 1.9 8.3 1 8.3 1s-8.2 6.4-11.5 9.3c-2.5 2.2-4 1.3-4.1 0-.4-3.8 1.4-9.2 2.7-12.3 1-2.8-4-4-5.7-.8-1.4 2.6-4.1 9-5.1 11.3-1.1 2.2-4.3 2.2-3.8 0 .4-2.4 3-7.9 4.1-10.7 1.3-3.6-4.2-3.8-5.9-.2-.6 1.3-2.8 6-5.3 10.6-2.3 4.3-6.5 5-8.3 3.5 8.8-5.5 10.3-16.3 1.5-16.5-8.4-.1-12.2 8-11.4 14-3.6 0-10.6-7.8-10.6-7.8 2.9-3.7 11.8-11.8 16.7-15.4 5-3.5.9-8.3-4.4-5A71.2 71.2 0 008.3 20.6c1-6 1.3-8.5 1.6-11 .3-2.8-4.2-3-5.2-.3C2.1 16.8.5 30.7 0 34.3c-.4 3.5 5 4.2 6.3 1.6 1.2-2.7 5-9.2 5-9.2 10.9 13.2 18.8 8.4 18.8 8.4a12 12 0 0015.4-1.2c2.2 4.5 9.4 3.4 12.6-.4 2.7 4.9 9.2 4.1 14 .3 7.7 5.8 16.5 3.2 20.9 1.3a12.6 12.6 0 0015.5-.2c2.8-2.5-.7-5.9-3.7-3.5zm-72.3-3.1c-1.7-2 1.9-9.7 5.3-8 2.3 1.2-4 9.5-5.3 8zm63 0c-1.8-2 1.9-9.7 5.3-8 2.3 1.2-4 9.5-5.3 8z"/>
</svg>
